<svg width="171" height="66" viewBox="0 0 171 66" fill="none" xmlns="http://www.w3.org/2000/svg">
<g clip-path="url(#clip0_1423_2611)">
<path d="M70.9415 35.008V62.7386H64.0895V58.6161L63.6277 59.305C62.7805 60.562 61.6375 61.5773 60.3055 62.2562C58.9219 62.9682 57.1925 63.3384 55.1362 63.3384C52.1045 63.3384 49.6989 62.4484 47.9867 60.6809C46.2746 58.9134 45.3926 56.117 45.3926 52.3576V35.008H52.6562V51.1561C52.6562 54.9974 54.2922 56.9465 57.5211 56.9465C59.4234 56.9465 60.9367 56.2914 62.0314 54.9885C63.1262 53.6855 63.6692 51.8289 63.6692 49.4117V35.0044L70.9415 35.008Z" fill="#1CBDE7"/>
<path d="M83.7499 45.9478H76.4863V62.7403H83.7499V45.9478Z" fill="#1CBDE7"/>
<path d="M84.3333 38.536C84.3333 39.7571 83.958 40.7272 83.1867 41.5051C82.4154 42.2829 81.3794 42.6656 80.091 42.6656C78.8026 42.6656 77.7753 42.274 77.0282 41.5069C76.2811 40.7397 75.9023 39.7393 75.9023 38.536C75.9023 37.3327 76.2828 36.3324 77.0282 35.5634C77.7736 34.7945 78.8043 34.4082 80.091 34.4082C81.3777 34.4082 82.4188 34.7962 83.1867 35.5652C83.9546 36.3342 84.3333 37.3132 84.3333 38.536Z" fill="#1CBDE7"/>
<path d="M110.321 23.1104V38.7049L109.868 38.0944C108.985 36.9257 107.834 36.0019 106.518 35.4066C105.119 34.7444 103.482 34.408 101.661 34.408C99.9133 34.3931 98.1795 34.7337 96.5596 35.4101C95.0208 36.0606 93.6286 37.0301 92.4695 38.2582C91.2674 39.5609 90.3416 41.1066 89.7508 42.7972C89.1022 44.5772 88.7754 46.6224 88.7754 48.8652C88.7754 51.108 89.1022 53.1496 89.7508 54.935C90.3426 56.6245 91.2683 58.1694 92.4695 59.4722C93.6278 60.7011 95.0203 61.6707 96.5596 62.3202C98.1792 62.9977 99.9132 63.3383 101.661 63.3223C103.636 63.3223 105.374 62.9396 106.832 62.1796C108.218 61.4825 109.402 60.4246 110.267 59.1108L110.731 58.3988V62.7207H117.648V23.1104H110.321ZM108.645 54.7623C107.298 56.2094 105.532 56.9464 103.412 56.9464C101.291 56.9464 99.5273 56.2094 98.18 54.7623C96.8328 53.3152 96.1549 51.3376 96.1549 48.8741C96.1549 46.4106 96.8363 44.4241 98.18 42.9858C99.5238 41.5476 101.293 40.8035 103.412 40.8035C105.53 40.8035 107.298 41.5369 108.645 42.9858C109.992 44.4347 110.67 46.4141 110.67 48.8741C110.67 51.334 109.99 53.317 108.645 54.7623Z" fill="#1CBDE7"/>
<path d="M148.796 41.6187C148.153 40.1616 147.219 38.8601 146.055 37.7988C144.799 36.6795 143.34 35.8287 141.761 35.2962C139.959 34.6874 138.073 34.3867 136.177 34.4062C134.275 34.3914 132.387 34.7316 130.603 35.4101C128.931 36.0533 127.401 37.0364 126.106 38.3008C124.807 39.5931 123.783 41.149 123.099 42.87C122.352 44.7766 121.982 46.8169 122.009 48.8722C122.009 51.2681 122.412 53.3952 123.22 55.1948C123.964 56.9227 125.068 58.4613 126.454 59.7017C127.857 60.928 129.486 61.8517 131.243 62.418C133.144 63.0385 135.128 63.3484 137.123 63.3365C141.486 63.3365 145.329 62.1421 148.537 59.7765L146.344 54.6554C145.157 55.4313 143.891 56.0706 142.569 56.5618C141.079 57.1014 139.51 57.37 137.93 57.3557C135.509 57.3557 133.55 56.8217 132.092 55.7786C130.634 54.7355 129.726 53.1086 129.447 51.0029L129.408 50.7092H148.815C149.118 50.0887 149.342 49.4306 149.481 48.7512C149.656 48.0028 149.751 47.237 149.765 46.4674C149.782 44.7986 149.451 43.1454 148.796 41.6187ZM142.256 45.7715L142.2 45.9495H129.389L129.449 45.6415C129.735 44.0452 130.577 42.6113 131.819 41.6098C133.064 40.597 134.61 40.0826 136.412 40.0826C138.375 40.0826 139.871 40.5507 140.843 41.4727C141.815 42.3948 142.328 43.6177 142.328 45.0897C142.336 45.3194 142.312 45.549 142.256 45.7715Z" fill="#1CBDE7"/>
<path d="M170.779 34.9171V42.0638C170.335 41.973 169.883 41.8858 169.434 41.8252C168.861 41.7439 168.283 41.7034 167.704 41.7042C166.881 41.6879 166.065 41.8561 165.312 42.1973C164.559 42.5386 163.887 43.0445 163.343 43.68C162.196 44.9865 161.613 46.8947 161.613 49.3529V62.7385H154.35V35.0079H161.205V40.225L161.682 39.1891C162.433 37.5657 163.429 36.3891 164.641 35.6967C165.884 34.9961 167.28 34.6352 168.697 34.6483C169.638 34.6483 170.336 34.7391 170.779 34.9171Z" fill="#1CBDE7"/>
<path d="M22.9889 29.9075C25.9785 29.408 28.0087 26.5087 27.5234 23.4316C27.0381 20.3546 24.2212 18.2651 21.2315 18.7646C18.2419 19.264 16.2118 22.1634 16.697 25.2404C17.1823 28.3174 19.9993 30.407 22.9889 29.9075Z" fill="#E36161"/>
<path d="M43.9831 23.7138V22.3325C43.682 16.4808 41.1779 10.98 37.002 6.99692C32.826 3.01383 27.3067 0.86178 21.6148 0.997239C15.9229 1.1327 10.5062 3.54501 6.51357 7.7225C2.52095 11.9 0.266531 17.514 0.228516 23.3738C0.228516 23.4966 0.228516 23.6212 0.228516 23.7458C0.228516 23.7458 0.228516 23.76 0.228516 23.7867C0.262405 24.8977 0.378031 26.0045 0.574402 27.0975C0.576883 27.1111 0.576883 27.125 0.574402 27.1385C1.39069 33.3133 3.9589 48.5928 11.6168 59.6057C12.811 61.326 14.3874 62.7276 16.2146 63.6936C18.0419 64.6596 20.067 65.1621 22.1212 65.1591C24.1754 65.1562 26.1991 64.6478 28.0237 63.6766C29.8483 62.7053 31.4209 61.2992 32.6104 59.5754C37.7987 52.0994 40.6471 41.6882 42.1966 35.0114H22.1024V42.4874H32.7124C32.711 42.4957 32.711 42.5041 32.7124 42.5123C31.6748 45.5864 30.3691 50.6202 28.7347 53.778C28.1241 54.9587 27.2134 55.9467 26.0998 56.6364C24.9862 57.3261 23.7116 57.6916 22.4119 57.694H21.8239C20.5315 57.6947 19.2629 57.3351 18.153 56.6535C17.0431 55.9718 16.1333 54.9935 15.5201 53.8225C10.401 43.988 8.55054 31.7611 7.91065 26.7665L7.60627 23.7725C7.61837 23.9398 7.69101 25.0185 7.91065 26.7665C7.73563 25.7928 7.63387 24.8067 7.60627 23.817V23.744C7.60627 23.6194 7.60627 23.4966 7.60627 23.372C7.64316 19.5224 9.12129 15.8358 11.7329 13.0798C14.3445 10.3238 17.8883 8.71075 21.6264 8.57656C25.3646 8.44237 29.0089 9.79737 31.8007 12.3594C34.5926 14.9215 36.3167 18.4931 36.614 22.3307V23.712L43.9831 23.7138Z" fill="#E36161"/>
</g>
<defs>
<clipPath id="clip0_1423_2611">
<rect width="171" height="66" fill="white"/>
</clipPath>
</defs>
</svg>
